<?xml version="1.0" encoding="utf-8"?>
<svg xmlns="http://www.w3.org/2000/svg" viewBox="0 0 184.82 165.517" xmlns:bx="https://boxy-svg.com">
  <defs>
    <bx:export>
      <bx:file format="png"/>
    </bx:export>
  </defs>
  <polygon points="90.28 17.085 13.937 150.344 170.954 151.483 94.399 15.432" style="fill: rgb(255, 225, 0);"/>
  <g transform="matrix(8.886672, 0, 0, 8.886672, 5, 5)" id="svg2">
    <g id="alert" transform="translate(-2.1798954,-3.5)">
      <path id="stroke" d="M 13.516 10 C 13.379 7.741 10.299 8.284 10.516 10 L 11 15 L 13 15 L 13.516 10 Z" style="fill:#000000;fill-opacity:1"/>
      <path id="triangle" d="M 12.017,5.974 19.536,19 H 4.496 L 12.017,5.974 m 0,-2.474 c -0.544,0 -1.088,0.357 -1.5,1.071 L 2.532,18.402 C 1.707,19.831 2.382,21 4.032,21 H 20 c 1.65,0 2.325,-1.169 1.5,-2.599 L 13.517,4.572 C 13.104,3.857 12.561,3.5 12.017,3.5 Z" style="fill: rgb(221, 51, 51); fill-opacity: 1;"/>
      <ellipse style="stroke-width: 3px;" cx="12.113" cy="16.837" rx="1.225" ry="1.225"/>
    </g>
  </g>
</svg>